<svg viewBox="0 0 155 41" xmlns="http://www.w3.org/2000/svg">
 
  <path d="M0 0.728V39.928H8.4V24.328H22.064V39.928H30.464V0.728H22.064V16.328H8.4V0.728H0Z" fill="white"/>
  

  <path d="M35.0348 0.728V39.928H43.4348V24.328H49.4348L56.4348 39.928H65.8348L57.8348 23.328C61.8348 21.328 64.4348 17.328 64.4348 12.328C64.4348 5.328 58.9348 0.728 51.4348 0.728H35.0348ZM43.4348 16.928V8.128H50.4348C53.4348 8.128 55.8348 9.728 55.8348 12.528C55.8348 15.328 53.4348 16.928 50.4348 16.928H43.4348Z" fill="white"/>
  

  <path d="M70.0268 0.728V39.928H87.4268C94.9268 39.928 100.427 35.328 100.427 28.328C100.427 23.328 97.4268 19.328 92.9268 17.728C96.4268 16.128 98.4268 12.728 98.4268 8.728C98.4268 2.728 93.4268 0.728 86.4268 0.728H70.0268ZM78.4268 16.128V8.128H85.4268C88.4268 8.128 90.0268 9.328 90.0268 12.128C90.0268 14.928 88.4268 16.128 85.4268 16.128H78.4268ZM78.4268 32.528V23.528H86.4268C89.4268 23.528 91.8268 24.728 91.8268 28.028C91.8268 31.328 89.4268 32.528 86.4268 32.528H78.4268Z" fill="white"/>
</svg>